# xmcd
# 
# Track frame offsets:
#     150
#     14405
#     26181
#     39741
#     53334
#     65255
#     77193
#     91555
#     104193
#     115788
#     127971
#     141213
#     154462
#     167348
#     178420
#     193199
# 
# Disc length: 2752
# 
# Revision: 4
# Processed by: cddbd v1.5.2PL0 Copyright (c) Steve Scherf et al.
# Submitted via: fre:ac v1.0.17
# 
DISCID=d90abe10
DTITLE=Various Artist - Take me home, country roads
DYEAR=2005
DGENRE=Country
TTITLE0=John Denver - Take me home, country roads
TTITLE1=Johnny Cash - Ring of fire
TTITLE2=Lee Marvin - Wand'rin star
TTITLE3=Lynn Anderson - (I never promised you a) Rose garden
TTITLE4=Frankie Laine - High noon (Do not forsake me)
TTITLE5=Guy Mitchell - Heartaches by the number
TTITLE6=Glenn Campbell - Rhinestone cowboy
TTITLE7=Patti Page - Gentle on my mind
TTITLE8=Sammi Smith - Help me make it through the night
TTITLE9=Tammy Wynette - Stand by your man
TTITLE10=Glenn Campbell - Southern nights
TTITLE11=Gene Pitney - (The man who shot) Liberty Valance
TTITLE12=Kenny Rogers - Ruby, don’t take your love to town
TTITLE13=Roger Miller - King of the road
TTITLE14=Bellamy Brothers - Let your love flow
TTITLE15=Patti Page - Tennessee waltz
EXTD=YEAR: 2005
EXTT0=
EXTT1=
EXTT2=
EXTT3=
EXTT4=
EXTT5=
EXTT6=
EXTT7=
EXTT8=
EXTT9=
EXTT10=
EXTT11=
EXTT12=
EXTT13=
EXTT14=
EXTT15=
PLAYORDER=
